<svg width="1054" height="1216" viewBox="0 0 1054 1216" fill="none" xmlns="http://www.w3.org/2000/svg">
<path d="M174.713 280C174.713 280 150.123 293.005 140.713 298.5C131.303 303.995 126.557 335.051 140.713 348.5C151.843 359.074 176.94 352.77 185.382 349.765C187.33 349.072 188.851 347.645 190.087 345.988L209.399 320.101C210.917 318.067 211.916 315.67 212.187 313.146C214.811 288.696 207.735 280.036 174.713 280ZM174.713 280C172.896 277.729 154.156 242.436 150.744 236.003C150.388 235.33 150.085 234.634 149.838 233.914C143.41 215.141 142.248 203.607 145.213 182C146.773 160.816 149.764 148.74 157.213 127C167.611 104.808 174.928 98.4285 188.213 88C203.457 72.1551 210.289 67.0428 222.213 58.5L258.312 34.4341C259.243 33.8133 260.241 33.2987 261.287 32.8998L306.443 15.6752C307.618 15.2268 308.846 14.9281 310.095 14.7861L350.323 10.2147C351.578 10.0722 352.846 10.0886 354.097 10.2637L400.191 16.7169C401.533 16.9048 402.843 17.2735 404.086 17.8131L438.253 32.649C439.553 33.2135 440.767 33.9594 441.857 34.8645L462.573 52.0541C463.331 52.6832 464.026 53.3854 464.646 54.1505L492.145 88.0659C493.183 89.3466 494.003 90.7896 494.572 92.337L518.041 156.172C518.487 157.386 518.775 158.652 518.896 159.939L523.596 209.755C523.674 210.583 523.683 211.417 523.623 212.248L518.827 278.428C518.751 279.473 518.566 280.508 518.275 281.514L502.213 337L477.213 398L440.753 464.515C440.394 465.171 439.986 465.799 439.533 466.393L382.713 541L308.213 621.5L233.713 695.5M233.713 695.5L188.311 479.466C188.246 479.155 188.192 478.851 188.142 478.538C187.477 474.343 182.185 443.903 174.713 485C167.272 525.928 137.767 729.518 133.683 757.75C133.363 759.959 132.571 761.964 131.332 763.821L65.2131 863L19.2131 938.5C9.83233 956.519 5.14799 967.251 17.3139 991.81C18.5149 994.235 20.4374 996.239 22.7536 997.638C31.018 1002.63 36.6045 1006 45.7131 1011.5C57.2414 1017.09 63.3246 1018.06 74.2131 1020C78.8527 1020.83 85.439 1020.95 91.4708 1020.82C99.8572 1020.63 107.207 1026.86 107.81 1035.23L111.213 1082.5L119.166 1148.93C119.523 1151.91 120.764 1154.71 122.729 1156.98L152.681 1191.51C154.657 1193.78 157.272 1195.41 160.187 1196.18L195.126 1205.39C199.019 1206.42 203.163 1205.84 206.623 1203.78L237.313 1185.51C241.059 1183.28 243.65 1179.53 244.41 1175.24L251.483 1135.3C251.636 1134.43 251.713 1133.56 251.713 1132.68V1035V1026M233.713 695.5L251.713 917V1026M251.713 1026H363.713M363.713 1026C347.4 995.566 339.563 978.291 337.805 948.671C337.74 947.566 337.557 946.464 337.285 945.392C328.621 911.339 344.074 870.907 345.154 868.149C345.196 868.043 345.228 867.96 345.269 867.853C346.243 865.316 359.89 830.517 381.237 816.9C382.207 816.281 383.14 815.593 383.985 814.811C401.195 798.906 411.177 797 430.213 797C447.03 797 452.519 802.666 463.48 807.356C467.086 808.899 470.239 811.442 472.071 814.91L483.213 836M363.713 1026C376.266 1033.77 384.009 1037.07 398.818 1037.91C400.073 1037.98 401.322 1038.19 402.53 1038.54C420.71 1043.79 431.807 1043.51 449.647 1039.03C451.669 1038.52 453.554 1037.57 455.182 1036.26L483.213 1013.85M493.213 1004.5L483.213 1013.85M483.213 1013.85L541.713 1018.5H557.713M557.713 1018.5L539.525 996.581C538.655 995.532 537.924 994.366 537.384 993.113C527.832 970.96 528.827 958.456 532.865 937.764C533.094 936.594 533.185 935.386 533.142 934.195C532.102 905.534 535.778 894.329 541.713 874L556.364 827.301C557.244 824.496 558.929 822.011 561.21 820.155L583.078 802.364C585.753 800.188 589.096 799 592.544 799H622.951C625.737 799 628.468 799.776 630.838 801.241L651.933 814.281C653.765 815.414 655.331 816.928 656.526 818.72L673.987 844.911C675.126 846.619 675.901 848.542 676.267 850.562L683.974 893.176C684.133 894.057 684.213 894.95 684.213 895.845V939.884C684.213 940.958 684.098 942.029 683.869 943.079L676.091 978.766C675.84 979.918 675.454 981.036 674.941 982.098L659.713 1013.61M557.713 1018.5L602.68 1036.58C604.999 1037.51 607.513 1037.85 609.995 1037.56L628.04 1035.48C630.77 1035.17 633.36 1034.11 635.529 1032.42L659.713 1013.61M659.713 1013.61H726.993C728.013 1013.61 728.912 1014.29 729.201 1015.26V1015.26C729.956 1017.81 733.713 1017.27 733.713 1014.61V914.75M733.713 914.75V809.375C733.713 803.132 737.58 797.542 743.421 795.34L759.848 789.146C762.691 788.074 765.792 787.891 768.741 788.62L805.615 797.739C808.916 798.555 811.841 800.469 813.911 803.165L829.11 822.959C831.122 825.58 832.213 828.791 832.213 832.095V862.828C832.213 866.179 831.091 869.434 829.026 872.073L807.761 899.245C806.093 901.375 803.881 903.015 801.358 903.991L770.805 915.804C768.768 916.592 766.584 916.925 764.405 916.781L764.213 916.768M733.713 914.75L764.213 916.768M764.213 916.768L839.196 1011M839.196 1035V1011M839.196 1011H902.213M902.213 1011L900.356 923.5M902.213 1011V1023.04C902.213 1030.04 907.054 1036.1 913.878 1037.66L1016.21 1061M1012.71 792.5L912.17 798.183C904.105 798.639 897.849 805.4 898.02 813.477L900.356 923.5M1012.71 792.5L1014.67 786.921C1015.67 784.042 1017.53 781.539 1020 779.745L1021.27 778.823C1024.99 776.12 1029.8 775.435 1034.13 776.997L1035.13 777.36C1040.94 779.458 1044.38 785.461 1043.24 791.534V791.534C1042.59 795.016 1040.5 798.062 1037.49 799.927L1035.25 801.311C1032.94 802.742 1030.27 803.5 1027.55 803.5V803.5C1022.38 803.5 1017.6 800.769 1014.97 796.319L1012.71 792.5ZM900.356 923.5C900.356 923.5 969.5 941 1012.71 949" stroke="black" stroke-width="20"/>
</svg>
